<?xml version="1.0" encoding="UTF-8" standalone="no"?>
<!DOCTYPE svg PUBLIC "-//W3C//DTD SVG 1.1//EN" "http://www.w3.org/Graphics/SVG/1.1/DTD/svg11.dtd">
<svg width="100%" height="100%" viewBox="0 0 2186 960" version="1.1" xmlns="http://www.w3.org/2000/svg" xmlns:xlink="http://www.w3.org/1999/xlink" xml:space="preserve" xmlns:serif="http://www.serif.com/" style="fill-rule:evenodd;clip-rule:evenodd;stroke-linejoin:round;stroke-miterlimit:2;">
    <g id="Odyssey-Banner" serif:id="Odyssey Banner" transform="matrix(0.623114,0,0,0.387048,0,0)">
        <rect x="0" y="0" width="3507.87" height="2480.32" style="fill:none;"/>
        <g transform="matrix(8.68245,0,0,12.7323,-37423.1,-4191.88)">
            <g transform="matrix(0.179808,0,0,0.1974,4165.43,179.671)">
                <g transform="matrix(608.4,0,0,608.4,1577.95,1398.62)">
                    <path d="M0.398,-0.466C0.413,-0.466 0.424,-0.464 0.43,-0.46C0.436,-0.456 0.439,-0.449 0.439,-0.44C0.439,-0.424 0.43,-0.367 0.413,-0.269C0.398,-0.175 0.389,-0.119 0.386,-0.102C0.361,0.069 0.327,0.205 0.284,0.305C0.241,0.405 0.183,0.455 0.111,0.455C0.077,0.455 0.049,0.444 0.028,0.424C0.007,0.403 -0.004,0.375 -0.004,0.341C-0.004,0.31 0.003,0.278 0.018,0.245C0.032,0.212 0.058,0.175 0.098,0.133C0.136,0.09 0.192,0.042 0.263,-0.013L0.266,-0.036C0.271,-0.061 0.276,-0.096 0.282,-0.142C0.269,-0.094 0.25,-0.058 0.226,-0.033C0.202,-0.008 0.177,0.005 0.15,0.005C0.12,0.005 0.095,-0.009 0.077,-0.037C0.057,-0.064 0.048,-0.099 0.048,-0.14C0.048,-0.19 0.051,-0.236 0.058,-0.278C0.065,-0.319 0.076,-0.363 0.091,-0.41C0.098,-0.43 0.107,-0.444 0.119,-0.453C0.131,-0.462 0.15,-0.466 0.176,-0.466C0.191,-0.466 0.201,-0.464 0.207,-0.459C0.212,-0.454 0.215,-0.447 0.215,-0.438C0.215,-0.433 0.211,-0.415 0.204,-0.384C0.197,-0.359 0.192,-0.337 0.188,-0.317C0.183,-0.29 0.178,-0.264 0.174,-0.239C0.17,-0.214 0.168,-0.193 0.168,-0.177C0.168,-0.152 0.175,-0.139 0.189,-0.139C0.199,-0.139 0.212,-0.149 0.227,-0.169C0.242,-0.189 0.258,-0.219 0.275,-0.26C0.292,-0.301 0.308,-0.351 0.324,-0.41C0.329,-0.43 0.338,-0.444 0.349,-0.453C0.36,-0.462 0.376,-0.466 0.398,-0.466ZM0.122,0.358C0.139,0.358 0.157,0.339 0.178,0.3C0.199,0.261 0.219,0.197 0.24,0.107C0.189,0.15 0.152,0.19 0.129,0.226C0.106,0.261 0.094,0.292 0.094,0.319C0.094,0.33 0.096,0.34 0.101,0.347C0.105,0.354 0.112,0.358 0.122,0.358Z" style="fill-rule:nonzero;"/>
                </g>
                <g transform="matrix(608.4,0,0,608.4,1574.91,1398.62)">
                </g>
                <g transform="matrix(608.4,0,0,608.4,2606.75,1398.62)">
                    <path d="M0.398,-0.466C0.413,-0.466 0.424,-0.464 0.43,-0.46C0.436,-0.456 0.439,-0.449 0.439,-0.44C0.439,-0.424 0.43,-0.367 0.413,-0.269C0.398,-0.175 0.389,-0.119 0.386,-0.102C0.361,0.069 0.327,0.205 0.284,0.305C0.241,0.405 0.183,0.455 0.111,0.455C0.077,0.455 0.049,0.444 0.028,0.424C0.007,0.403 -0.004,0.375 -0.004,0.341C-0.004,0.31 0.003,0.278 0.018,0.245C0.032,0.212 0.058,0.175 0.098,0.133C0.136,0.09 0.192,0.042 0.263,-0.013L0.266,-0.036C0.271,-0.061 0.276,-0.096 0.282,-0.142C0.269,-0.094 0.25,-0.058 0.226,-0.033C0.202,-0.008 0.177,0.005 0.15,0.005C0.12,0.005 0.095,-0.009 0.077,-0.037C0.057,-0.064 0.048,-0.099 0.048,-0.14C0.048,-0.19 0.051,-0.236 0.058,-0.278C0.065,-0.319 0.076,-0.363 0.091,-0.41C0.098,-0.43 0.107,-0.444 0.119,-0.453C0.131,-0.462 0.15,-0.466 0.176,-0.466C0.191,-0.466 0.201,-0.464 0.207,-0.459C0.212,-0.454 0.215,-0.447 0.215,-0.438C0.215,-0.433 0.211,-0.415 0.204,-0.384C0.197,-0.359 0.192,-0.337 0.188,-0.317C0.183,-0.29 0.178,-0.264 0.174,-0.239C0.17,-0.214 0.168,-0.193 0.168,-0.177C0.168,-0.152 0.175,-0.139 0.189,-0.139C0.199,-0.139 0.212,-0.149 0.227,-0.169C0.242,-0.189 0.258,-0.219 0.275,-0.26C0.292,-0.301 0.308,-0.351 0.324,-0.41C0.329,-0.43 0.338,-0.444 0.349,-0.453C0.36,-0.462 0.376,-0.466 0.398,-0.466ZM0.122,0.358C0.139,0.358 0.157,0.339 0.178,0.3C0.199,0.261 0.219,0.197 0.24,0.107C0.189,0.15 0.152,0.19 0.129,0.226C0.106,0.261 0.094,0.292 0.094,0.319C0.094,0.33 0.096,0.34 0.101,0.347C0.105,0.354 0.112,0.358 0.122,0.358Z" style="fill-rule:nonzero;"/>
                </g>
                <g transform="matrix(608.4,0,0,608.4,2606.75,1398.62)">
                </g>
                <g transform="matrix(608.4,0,0,608.4,2879.92,1398.62)">
                </g>
                <text x="780.336px" y="1398.62px" style="font-family:'Pacifico-Regular', 'Pacifico';font-size:608.4px;">O<tspan x="1264.62px 1848.08px " y="1398.62px 1398.62px ">ds</tspan>se</text>
            </g>
            <g transform="matrix(1.10466,0,0,1.21274,-658.042,-32.9889)">
                <circle cx="4852.71" cy="387.242" r="8.247" style="fill:rgb(246,158,20);"/>
            </g>
        </g>
    </g>
</svg>
